<svg xmlns="http://www.w3.org/2000/svg" width="24" height="25" viewBox="0 0 24 25" fill="none">
  <path d="M13.4099 12.4999L19.7099 6.20994C19.8982 6.02164 20.004 5.76624 20.004 5.49994C20.004 5.23364 19.8982 4.97825 19.7099 4.78994C19.5216 4.60164 19.2662 4.49585 18.9999 4.49585C18.7336 4.49585 18.4782 4.60164 18.2899 4.78994L11.9999 11.0899L5.70994 4.78994C5.52164 4.60164 5.26624 4.49585 4.99994 4.49585C4.73364 4.49585 4.47824 4.60164 4.28994 4.78994C4.10164 4.97825 3.99585 5.23364 3.99585 5.49994C3.99585 5.76624 4.10164 6.02164 4.28994 6.20994L10.5899 12.4999L4.28994 18.7899C4.19621 18.8829 4.12182 18.9935 4.07105 19.1154C4.02028 19.2372 3.99414 19.3679 3.99414 19.4999C3.99414 19.632 4.02028 19.7627 4.07105 19.8845C4.12182 20.0064 4.19621 20.117 4.28994 20.2099C4.3829 20.3037 4.4935 20.3781 4.61536 20.4288C4.73722 20.4796 4.86793 20.5057 4.99994 20.5057C5.13195 20.5057 5.26266 20.4796 5.38452 20.4288C5.50638 20.3781 5.61698 20.3037 5.70994 20.2099L11.9999 13.9099L18.2899 20.2099C18.3829 20.3037 18.4935 20.3781 18.6154 20.4288C18.7372 20.4796 18.8679 20.5057 18.9999 20.5057C19.132 20.5057 19.2627 20.4796 19.3845 20.4288C19.5064 20.3781 19.617 20.3037 19.7099 20.2099C19.8037 20.117 19.8781 20.0064 19.9288 19.8845C19.9796 19.7627 20.0057 19.632 20.0057 19.4999C20.0057 19.3679 19.9796 19.2372 19.9288 19.1154C19.8781 18.9935 19.8037 18.8829 19.7099 18.7899L13.4099 12.4999Z" fill="black"/>
</svg>