<svg xmlns="http://www.w3.org/2000/svg" width="22" height="16" viewBox="0 0 22 16" fill="none">
  <path d="M15.5 2.75862C14.0174 1.65407 12.3677 1 10.5 1C6.5 1 3.5 4 1 8C2.33267 10.1323 3.80743 11.9804 5.5 13.2414" stroke="#222628" stroke-width="1.4" stroke-linecap="round" stroke-linejoin="round"/>
  <path d="M8.5 15C14 15.5 18 12 20.5 8C19.1673 5.86772 18 5.00001 18 5.00001" stroke="#222628" stroke-width="1.4" stroke-linecap="round" stroke-linejoin="round"/>
  <path d="M8.87865 10.1213C8.60008 9.84274 8.3791 9.51203 8.22834 9.14805C8.07757 8.78407 7.99997 8.39397 7.99997 8C7.99997 7.60603 8.07757 7.21593 8.22834 6.85195C8.3791 6.48797 8.60008 6.15726 8.87865 5.87868C9.15723 5.6001 9.48795 5.37913 9.85192 5.22836C10.2159 5.0776 10.606 5 11 5C11.3939 5 11.784 5.0776 12.148 5.22836C12.512 5.37913 12.8427 5.6001 13.1213 5.87868L11 8L8.87865 10.1213Z" stroke="#222628" stroke-width="1.4"/>
  <line x1="18" y1="0.989949" x2="3.98995" y2="15" stroke="#222628" stroke-width="1.4" stroke-linecap="round"/>
  <path d="M14.3632 8.63681C14.3632 8.63681 14.4265 9.57349 13.5531 10.4469C12.6797 11.3202 11.7431 11.2569 11.7431 11.2569" stroke="#222628" stroke-width="1.4" stroke-linecap="round"/>
</svg>