<svg xmlns="http://www.w3.org/2000/svg" width="32" height="32" viewBox="0 0 32 32" fill="none">
  <path fill-rule="evenodd" clip-rule="evenodd" d="M16 0C7.16344 0 0 7.16344 0 16C0 24.8366 7.16344 32 16 32C24.8366 32 32 24.8366 32 16C32 7.16344 24.8366 0 16 0ZM15.1492 9.56751C14.6895 9.15372 13.9813 9.19099 13.5675 9.65076C13.1537 10.1105 13.191 10.8187 13.6508 11.2325L14.4 10.4L13.6508 11.2325L13.6509 11.2326L13.6516 11.2332L13.6545 11.2358L13.6661 11.2463L13.7121 11.2878L13.8881 11.4472C14.04 11.585 14.2573 11.7827 14.5182 12.0219C15.0403 12.5005 15.7351 13.1432 16.4286 13.802C17.1248 14.4634 17.8086 15.1305 18.314 15.6612C18.4326 15.7857 18.5378 15.899 18.6287 16C18.5378 16.101 18.4326 16.2143 18.314 16.3388C17.8086 16.8695 17.1248 17.5366 16.4286 18.198C15.7351 18.8568 15.0403 19.4995 14.5182 19.9781C14.2573 20.2173 14.04 20.415 13.8881 20.5528L13.7121 20.7122L13.6661 20.7537L13.6545 20.7642L13.6516 20.7668L13.6509 20.7674L13.6508 20.7675L14.4 21.6L13.6508 20.7675C13.191 21.1813 13.1537 21.8895 13.5675 22.3492C13.9813 22.809 14.6895 22.8463 15.1492 22.4325L14.4 21.6L15.1494 22.4324L15.1496 22.4322L15.1504 22.4314L15.1537 22.4285L15.166 22.4173L15.2137 22.3744L15.3931 22.2119C15.5475 22.0719 15.7677 21.8715 16.0318 21.6294C16.5597 21.1455 17.2649 20.4932 17.9714 19.822C18.6752 19.1534 19.3914 18.4555 19.936 17.8837C20.2061 17.6001 20.4507 17.3301 20.6339 17.1011C20.7239 16.9887 20.8178 16.8629 20.8949 16.7357C20.9334 16.6722 20.9805 16.5874 21.0209 16.4886C21.0551 16.4047 21.12 16.2271 21.12 16C21.12 15.7729 21.0551 15.5953 21.0209 15.5114C20.9805 15.4126 20.9334 15.3278 20.8949 15.2643C20.8178 15.1371 20.7239 15.0113 20.6339 14.8989C20.4507 14.6699 20.2061 14.3999 19.936 14.1163C19.3914 13.5445 18.6752 12.8466 17.9714 12.178C17.2649 11.5068 16.5597 10.8545 16.0318 10.3706C15.7677 10.1285 15.5475 9.92813 15.3931 9.78812L15.2137 9.62563L15.166 9.58265L15.1537 9.57149L15.1504 9.56859L15.1496 9.56782L15.1494 9.56761L14.4 10.4L15.1492 9.56751Z" fill="#FFC80A"/>
</svg>